# xmcd
#
# Track frame offsets: 
#        150
#        10630
#        25561
#        35126
#        42784
#        56728
#        69390
#        84141
#        105401
#        112909
#        124658
#        134207
#        144538
#
# Disc length: 2136 seconds
#
# Revision: 2
# Processed by: cddbd v1.5.2PL0 Copyright (c) Steve Scherf et al.
# Submitted via: ExactAudioCopy v0.95b4
#
DISCID=a408560d
DTITLE=Songs: Ohia - self-titled
DYEAR=1997
DGENRE=Blues
TTITLE0=Cabwaylingo
TTITLE1=Crab Orchard
TTITLE2=Gauley Bridge
TTITLE3=Blue Jay
TTITLE4=Tenskwatawa
TTITLE5=White Sulfur
TTITLE6=Our Republic
TTITLE7=Big Sewell Mt.
TTITLE8=Cotton Hill
TTITLE9=Dogwood Gap
TTITLE10=Little Beaver
TTITLE11=Blue Stone
TTITLE12=U.M.W. Pension
EXTD=
EXTT0=
EXTT1=
EXTT2=
EXTT3=
EXTT4=
EXTT5=
EXTT6=
EXTT7=
EXTT8=
EXTT9=
EXTT10=
EXTT11=
EXTT12=
PLAYORDER=
